<svg width="16" height="16" viewBox="0 0 16 16" fill="none" xmlns="http://www.w3.org/2000/svg">
<path d="M10.9599 2.06665C9.75325 2.06665 8.67325 2.65332 7.99992 3.55332C7.32658 2.65332 6.24658 2.06665 5.03992 2.06665C2.99325 2.06665 1.33325 3.73332 1.33325 5.79332C1.33325 6.58665 1.45992 7.31998 1.67992 7.99998C2.73325 11.3333 5.97992 13.3266 7.58659 13.8733C7.81325 13.9533 8.18658 13.9533 8.41325 13.8733C10.0199 13.3266 13.2666 11.3333 14.3199 7.99998C14.5399 7.31998 14.6666 6.58665 14.6666 5.79332C14.6666 3.73332 13.0066 2.06665 10.9599 2.06665Z" fill="url(#paint0_linear_127_3662)"/>
<defs>
<linearGradient id="paint0_linear_127_3662" x1="5.5" y1="13" x2="12" y2="2.99998" gradientUnits="userSpaceOnUse">
<stop stop-color="#E61E1E"/>
<stop offset="1" stop-color="#F05151"/>
</linearGradient>
</defs>
</svg>
