<svg width="35" height="30" viewBox="0 0 35 30" fill="none" xmlns="http://www.w3.org/2000/svg">
<g clip-path="url(#clip0_127_2047)">
<path d="M31.7877 5.80309C28.3355 3.79722 23.9211 4.9891 21.9261 8.46401L16.8974 17.2324C15.4423 19.7645 17.3156 20.6492 19.4044 21.9099L24.2433 24.721C25.882 25.6724 27.975 25.1077 28.9201 23.4604L34.0899 14.4491C35.8265 11.4211 34.796 7.55121 31.7877 5.80309Z" fill="#EA4335"/>
<path d="M26.0974 9.43238L21.2585 6.62118C18.5873 5.12861 17.0745 5.02981 15.9779 6.78439L8.84106 19.2253C6.84825 22.6979 8.03442 27.1391 11.4845 29.1406C14.4929 30.8887 18.3377 29.8515 20.0744 26.8234L27.3479 14.142C28.2972 12.4927 27.7361 10.3837 26.0974 9.43238Z" fill="#FBBC04"/>
<path d="M27.0289 3.03701L23.6301 1.061C19.8707 -1.12294 15.0637 0.172013 12.8938 3.956L6.42263 15.2371C5.46683 16.9016 6.03435 19.032 7.68796 19.9918L11.4942 22.2038C13.3738 23.2971 15.7762 22.6483 16.8623 20.7564L24.2551 7.8688C25.7871 5.19949 29.1774 4.28463 31.8294 5.8266L27.0289 3.03688V3.03701Z" fill="#34A853"/>
<path d="M13.8131 7.18392L10.1391 5.05351C8.50048 4.10424 6.40745 4.66681 5.46232 6.31199L1.0541 13.9788C-1.11563 17.752 0.170893 22.5797 3.93025 24.7575L6.72738 26.3788L10.1199 28.3459L11.5921 29.1984C8.97845 27.4375 8.14843 23.9091 9.7464 21.1301L10.888 19.1457L15.0676 11.8762C16.0107 10.2354 15.4496 8.13305 13.8131 7.18378V7.18392Z" fill="#4285F4"/>
</g>
<defs>
<clipPath id="clip0_127_2047">
<rect width="35" height="30" fill="white"/>
</clipPath>
</defs>
</svg>
