<svg width="28" height="28" viewBox="0 0 28 28" fill="none" xmlns="http://www.w3.org/2000/svg">
<path d="M13.5197 6.5778L14.0002 7.21995L14.4806 6.5778C15.551 5.14704 17.2664 4.2167 19.1802 4.2167C22.4277 4.2167 25.0668 6.86193 25.0668 10.1384C25.0668 11.4614 24.8558 12.6825 24.4893 13.8153L24.488 13.8192C23.6093 16.6 21.8085 18.8417 19.8639 20.5129C17.9167 22.1864 15.8598 23.258 14.5302 23.7103L14.5302 23.7103L14.5238 23.7126C14.4097 23.7529 14.2198 23.7834 14.0002 23.7834C13.7806 23.7834 13.5907 23.7529 13.4765 23.7126L13.4765 23.7125L13.4701 23.7103C12.1405 23.258 10.0837 22.1864 8.13645 20.5129C6.19187 18.8417 4.39098 16.6 3.51228 13.8192L3.51229 13.8192L3.51103 13.8153C3.14453 12.6825 2.9335 11.4614 2.9335 10.1384C2.9335 6.86193 5.57267 4.2167 8.82016 4.2167C10.7339 4.2167 12.4493 5.14704 13.5197 6.5778Z" stroke="#A5ADB3" stroke-width="1.2"/>
</svg>
