<svg width="25" height="29" viewBox="0 0 25 29" fill="none" xmlns="http://www.w3.org/2000/svg">
<g clip-path="url(#clip0_127_2063)">
<path d="M21.2078 2.25731C19.8471 0.732214 17.3873 0.0783691 14.2405 0.0783691H5.10772C4.79638 0.0783805 4.49525 0.187603 4.25848 0.3864C4.0217 0.585197 3.86481 0.860528 3.81602 1.16289L0.0132861 24.8783C-0.0622998 25.3459 0.305962 25.7694 0.787993 25.7694H6.42627L7.84229 16.9377L7.79834 17.2143C7.89922 16.59 8.44219 16.1296 9.08516 16.1296H11.7645C17.0279 16.1296 21.1493 14.0274 22.3532 7.94611C22.389 7.76625 22.4199 7.59119 22.4467 7.42017C22.2947 7.34104 22.2947 7.34104 22.4467 7.42017C22.8052 5.17248 22.4442 3.64249 21.2078 2.25731Z" fill="#27346A"/>
<path d="M9.99971 6.61047C10.1539 6.5383 10.3224 6.5009 10.4932 6.501H17.6531C18.501 6.501 19.2918 6.55526 20.0145 6.66963C20.2167 6.70133 20.4178 6.73918 20.6177 6.78313C20.9009 6.84459 21.1809 6.9198 21.4566 7.0085C21.8118 7.12518 22.1427 7.26105 22.4468 7.42017C22.8052 5.17161 22.4442 3.64249 21.2078 2.25731C19.8463 0.732213 17.3873 0.0783691 14.2405 0.0783691H5.10694C4.46387 0.0783691 3.9168 0.53872 3.81602 1.16289L0.0132867 24.8774C-0.0622993 25.3458 0.305962 25.7687 0.787212 25.7687H6.42628L9.36407 7.44975C9.39295 7.26969 9.4659 7.09922 9.57663 6.95302C9.68735 6.80683 9.83255 6.68927 9.99971 6.61047Z" fill="#27346A"/>
<path d="M22.3532 7.9461C21.1493 14.0265 17.028 16.1296 11.7644 16.1296H9.08437C8.4414 16.1296 7.89833 16.59 7.79843 17.2143L6.03681 28.1954C5.97099 28.6047 6.29286 28.9755 6.71396 28.9755H11.4669C11.7392 28.9754 12.0025 28.8799 12.2094 28.7059C12.4164 28.532 12.5535 28.2912 12.5961 28.0268L12.6424 27.7886L13.5382 22.206L13.5959 21.8975C13.6384 21.6331 13.7755 21.3923 13.9825 21.2184C14.1895 21.0445 14.4527 20.9489 14.725 20.9488H15.4363C20.0405 20.9488 23.6457 19.1095 24.6992 13.79C25.139 11.567 24.9114 9.71097 23.7481 8.40732C23.3953 8.01246 22.9571 7.68635 22.4467 7.42017C22.419 7.59205 22.3891 7.76625 22.3532 7.9461Z" fill="#2790C3"/>
<path d="M21.1867 6.92622C20.999 6.87232 20.8095 6.8246 20.6186 6.78314C20.4186 6.73991 20.2175 6.70232 20.0153 6.67041C19.2919 6.55527 18.5017 6.50092 17.653 6.50092H10.4939C10.3231 6.50054 10.1544 6.53826 10.0005 6.61125C9.83313 6.68981 9.68777 6.80729 9.577 6.95353C9.46622 7.09977 9.39337 7.27036 9.36474 7.45052L7.84306 16.9377L7.79912 17.2143C7.89922 16.59 8.44218 16.1296 9.08525 16.1296H11.7653C17.0288 16.1296 21.1501 14.0274 22.354 7.94612C22.3898 7.76626 22.4199 7.59197 22.4476 7.42018C22.1427 7.26193 21.8127 7.12519 21.4573 7.00928C21.3677 6.98005 21.2775 6.95236 21.1868 6.92622" fill="#1F264F"/>
</g>
<defs>
<clipPath id="clip0_127_2063">
<rect width="25" height="29" fill="white"/>
</clipPath>
</defs>
</svg>
