<svg width="29" height="30" viewBox="0 0 29 30" fill="none" xmlns="http://www.w3.org/2000/svg">
<path d="M28.3913 12.2254H27.2502V12.1666H14.5002V17.8333H22.5065C21.3384 21.132 18.1998 23.4999 14.5002 23.4999C9.80604 23.4999 6.00016 19.694 6.00016 14.9999C6.00016 10.3058 9.80604 6.49992 14.5002 6.49992C16.667 6.49992 18.6382 7.31733 20.1392 8.65254L24.1462 4.6455C21.6161 2.28746 18.2317 0.833252 14.5002 0.833252C6.67662 0.833252 0.333496 7.17638 0.333496 14.9999C0.333496 22.8235 6.67662 29.1666 14.5002 29.1666C22.3237 29.1666 28.6668 22.8235 28.6668 14.9999C28.6668 14.05 28.5691 13.1228 28.3913 12.2254Z" fill="#FFC107"/>
<path d="M1.9668 8.40604L6.62125 11.8195C7.88067 8.70142 10.9308 6.49992 14.5 6.49992C16.6668 6.49992 18.6381 7.31734 20.1391 8.65254L24.1461 4.6455C21.616 2.28746 18.2315 0.833252 14.5 0.833252C9.05863 0.833252 4.33971 3.90529 1.9668 8.40604Z" fill="#FF3D00"/>
<path d="M14.5001 29.1667C18.1593 29.1667 21.4842 27.7663 23.9981 25.489L19.6135 21.7787C18.1434 22.8968 16.347 23.5015 14.5001 23.5C10.8153 23.5 7.6866 21.1505 6.50793 17.8716L1.88818 21.431C4.23277 26.0188 8.99418 29.1667 14.5001 29.1667Z" fill="#4CAF50"/>
<path d="M28.3911 12.2255H27.25V12.1667H14.5V17.8334H22.5063C21.9476 19.4034 20.9411 20.7752 19.6113 21.7795L19.6135 21.7781L23.998 25.4884C23.6878 25.7703 28.6667 22.0834 28.6667 15.0001C28.6667 14.0502 28.5689 13.123 28.3911 12.2255Z" fill="#4D66FF"/>
</svg>
